<svg xmlns="http://www.w3.org/2000/svg" xmlns:lucid="lucid" width="178.22" height="248.33"><g lucid:page-tab-id="0_0"><path d="M20 20h138.2v208.33H20z" fill="#fff" fill-opacity="0"/><path d="M89.24 53.33c17.82 0 32.6 14.8 32.6 32.5.15 18.13-14.5 32.92-32.33 32.92h-.13c-18.1 0-32.9-14.38-32.9-32.3 0-18.33 14.4-32.9 32.77-33.12zM89.5 20c-2.75 0-5.65.2-8.56.63-22.1 2.7-39.38 13.75-51 32.9-8.97 14.8-12.3 30.84-8.14 48.14 2.76 11.66 7.6 22.7 12.7 33.33 10.8 22.7 23.37 44.38 36.77 65.83l17.83 27.5c.7-1.04 1.1-1.66 1.52-2.08 13.95-20.83 27.22-42.3 39.38-64.17 8.85-16.25 17.27-32.5 23.5-50 4.42-12.3 6.2-24.58 3.3-37.5C149.9 42.7 121.58 20 89.5 20z" fill="#158864"/></g></svg>